<svg xmlns="http://www.w3.org/2000/svg" viewBox="0 0 100 100">
  <defs>
    <linearGradient id="greenGradient" x1="0%" y1="0%" x2="0%" y2="100%">
      <stop offset="0%" style="stop-color:#22c55e;stop-opacity:1" />
      <stop offset="50%" style="stop-color:#16a34a;stop-opacity:1" />
      <stop offset="100%" style="stop-color:#15803d;stop-opacity:1" />
    </linearGradient>
    <filter id="shadow" x="-20%" y="-20%" width="140%" height="140%">
      <feDropShadow dx="1" dy="2" stdDeviation="1.5" flood-color="#000000" flood-opacity="0.4"/>
    </filter>
  </defs>
  
  <!-- Background circle -->
  <circle cx="50" cy="50" r="48" fill="#ffffff" stroke="#e5e7eb" stroke-width="2"/>
  
  <!-- D Letter -->
  <path d="M 15 25 L 15 75 L 35 75 C 45 75 52 68 52 50 C 52 32 45 25 35 25 Z M 25 35 L 32 35 C 37 35 42 37 42 50 C 42 63 37 65 32 65 L 25 65 Z" 
        fill="url(#greenGradient)" 
        filter="url(#shadow)"/>
  
  <!-- N Letter -->
  <path d="M 58 25 L 58 75 L 68 75 L 68 45 L 78 75 L 85 75 L 85 25 L 75 25 L 75 55 L 68 25 Z" 
        fill="url(#greenGradient)" 
        filter="url(#shadow)"/>
</svg>